<svg width="38" height="38" viewBox="0 0 38 38" fill="none" xmlns="http://www.w3.org/2000/svg">
<path d="M32.2602 22.3225L32.2602 22.3225C31.6514 22.5686 31.3575 23.2615 31.6035 23.8702L33.2981 28.0619L33.5288 28.6327L32.9655 28.3843L27.9327 26.1658C27.6317 26.0331 27.2891 26.031 26.9866 26.1601L26.8885 25.9302L26.9866 26.1601C25.2349 26.9075 23.359 27.2861 21.4122 27.2861C13.576 27.2861 8.28498 21.1478 8.28498 15.3721C8.28498 8.7798 14.1974 3.45812 21.4122 3.45812C28.6269 3.45812 34.5393 8.7798 34.5393 15.3721C34.5393 15.8874 34.4915 16.5006 34.4085 17.0573L34.1612 17.0205L34.4085 17.0574C34.3116 17.7067 34.7595 18.3116 35.4089 18.4085L35.4089 18.4086C36.0583 18.5057 36.6632 18.0576 36.76 17.4082C36.8613 16.7295 36.9169 16.0057 36.9169 15.3721C36.9169 11.5371 35.2938 7.93563 32.3377 5.23011C29.4159 2.55592 25.5368 1.08054 21.4122 1.08054C17.2875 1.08054 13.4085 2.55592 10.4866 5.23004C7.84477 7.64801 6.26904 10.7815 5.96335 14.1567L5.95252 14.2762L5.8524 14.3425C2.5395 16.5364 0.583865 20.0452 0.583865 23.817C0.583865 26.1747 1.32614 28.4116 2.74175 30.3391L2.82429 30.4515L2.77203 30.5808L0.67053 35.7793L0.438792 35.6856L0.670525 35.7793C0.48918 36.2278 0.597772 36.7415 0.945192 37.0783L0.945233 37.0783C1.17156 37.2978 1.46975 37.4137 1.77286 37.4137L32.2602 22.3225ZM32.2602 22.3225C32.8688 22.0764 33.5618 22.3705 33.8079 22.9791L36.8303 30.4557C37.0116 30.9043 36.903 31.418 36.5556 31.7548L36.7296 31.9343L36.5556 31.7548C36.3292 31.9742 36.0309 32.0901 35.7278 32.0902C35.5661 32.0902 35.4029 32.0571 35.2485 31.9891L27.5294 28.5864L27.4353 28.5449L27.3393 28.5816C26.385 28.9464 25.4017 29.2193 24.3955 29.4L24.2846 29.4199L24.2261 29.5162C23.2022 31.2002 21.7404 32.6282 19.9608 33.6687C17.9742 34.8301 15.6787 35.4516 13.3157 35.4695L13.3075 35.4696L13.2993 35.4702L13.2952 35.4705C13.2592 35.4731 13.2349 35.4749 13.211 35.4749C11.577 35.4749 9.99537 35.1927 8.49961 34.636L8.40445 34.6006L8.31155 34.6415L2.25215 37.3126L2.25211 37.3126M32.2602 22.3225L2.25211 37.3126M2.25211 37.3126C2.09796 37.3806 1.93484 37.4136 1.77294 37.4137L2.25211 37.3126ZM13.1516 33.0966L13.1516 33.0969L13.163 33.0964C13.198 33.095 13.198 33.0942 13.2023 33.0938C13.2039 33.0937 13.2061 33.0937 13.2111 33.0937C16.1092 33.0937 18.8506 31.9619 20.7701 30.0725L21.1775 29.6715L20.6065 29.6446C16.6788 29.46 13.0457 27.9273 10.3004 25.2853C8.09393 23.1616 6.63391 20.4607 6.11688 17.6422L6.0322 17.1806L5.69636 17.5084C3.95923 19.2041 2.96145 21.4458 2.96145 23.817C2.96145 25.888 3.70045 27.8469 5.09233 29.4799L5.28259 29.3177L5.09233 29.4799C5.37967 29.8169 5.4558 30.2859 5.28979 30.6966L4.20286 33.3853L3.97212 33.9561L4.53548 33.7078L7.90491 32.2225L7.90494 32.2225C8.20596 32.0898 8.54848 32.0877 8.85089 32.2168L8.85096 32.2169C10.203 32.7937 11.65 33.089 13.1516 33.0966Z" fill="#020202" stroke="#F5FAFF" stroke-width="0.5"/>
<path d="M21.3404 16.873C22.135 16.873 22.7792 16.2289 22.7792 15.4342C22.7792 14.6396 22.135 13.9955 21.3404 13.9955C20.5458 13.9955 19.9016 14.6396 19.9016 15.4342C19.9016 16.2289 20.5458 16.873 21.3404 16.873Z" fill="#020202"/>
<path d="M27.0974 16.873C27.892 16.873 28.5361 16.2289 28.5361 15.4342C28.5361 14.6396 27.892 13.9955 27.0974 13.9955C26.3027 13.9955 25.6586 14.6396 25.6586 15.4342C25.6586 16.2289 26.3027 16.873 27.0974 16.873Z" fill="#020202"/>
<path d="M15.5855 16.873C16.3801 16.873 17.0243 16.2289 17.0243 15.4342C17.0243 14.6396 16.3801 13.9955 15.5855 13.9955C14.7909 13.9955 14.1467 14.6396 14.1467 15.4342C14.1467 16.2289 14.7909 16.873 15.5855 16.873Z" fill="#020202"/>
</svg>
